<svg width="60" height="60" viewBox="0 0 60 60" fill="none" xmlns="http://www.w3.org/2000/svg">
<g clip-path="url(#clip0_778_47)">
<path d="M24.2665 34.6112C23.4183 34.6112 22.7306 33.9235 22.7306 33.0753V14.3761C22.7306 13.6562 22.145 13.0706 21.4252 13.0706C20.7053 13.0706 20.1197 13.6562 20.1197 14.3761V33.0756C20.1197 33.9238 19.432 34.6114 18.5838 34.6114C17.7356 34.6114 17.048 33.9238 17.048 33.0756V14.3761C17.048 11.9625 19.0116 9.9989 21.4252 9.9989C23.8388 9.9989 25.8023 11.9625 25.8023 14.3761V33.0756C25.8023 33.9237 25.1147 34.6112 24.2665 34.6112Z" fill="#37103A" fill-opacity="0.86"/>
<path d="M12.9012 34.6112C12.053 34.6112 11.3653 33.9236 11.3653 33.0754V12.9553C11.3653 12.2354 10.7797 11.6498 10.0599 11.6498C9.33997 11.6498 8.75438 12.2354 8.75438 12.9553V16.8864C8.75438 17.7346 8.06673 18.4222 7.21852 18.4222C6.37032 18.4222 5.68266 17.7346 5.68266 16.8864V12.9553C5.68266 10.5417 7.64626 8.57812 10.0599 8.57812C12.4734 8.57812 14.437 10.5417 14.437 12.9553V33.0756C14.437 33.9237 13.7494 34.6112 12.9012 34.6112Z" fill="#37103A" fill-opacity="0.86"/>
<path d="M18.5838 34.6112C17.7356 34.6112 17.048 33.9236 17.048 33.0754V10.1136C17.048 9.39375 16.4624 8.80817 15.7425 8.80817C15.0226 8.80817 14.437 9.39375 14.437 10.1136V33.0755C14.437 33.9237 13.7494 34.6113 12.9012 34.6113C12.053 34.6113 11.3653 33.9237 11.3653 33.0755V10.1136C11.3653 7.70004 13.3289 5.73645 15.7425 5.73645C18.1561 5.73645 20.1197 7.70004 20.1197 10.1136V33.0755C20.1197 33.9237 19.432 34.6112 18.5838 34.6112Z" fill="#37103A" fill-opacity="0.86"/>
<path d="M8.24063 50.1275C7.67977 50.1275 7.1393 49.819 6.86883 49.2843C6.30691 48.173 5.48332 47.1906 4.48699 46.4434C1.67742 44.3359 0 40.9809 0 37.4687V25.1465C0 22.7329 1.96359 20.7693 4.37719 20.7693C6.79078 20.7693 8.75438 22.7329 8.75438 25.1465V31.7969C8.75438 32.6451 8.06672 33.3327 7.21852 33.3327C6.37031 33.3327 5.68266 32.6451 5.68266 31.7969V25.1465C5.68266 24.4266 5.09707 23.841 4.37719 23.841C3.65731 23.841 3.07172 24.4266 3.07172 25.1465V37.4687C3.07172 40.0193 4.28977 42.4558 6.33024 43.9862C7.70203 45.0153 8.83629 46.3681 9.61008 47.8983C9.99281 48.6552 9.68953 49.5791 8.9325 49.9619C8.71031 50.0742 8.47371 50.1275 8.24063 50.1275Z" fill="#37103A" fill-opacity="0.86"/>
<path d="M29.9491 34.6112C29.1009 34.6112 28.4133 33.9235 28.4133 33.0753V18.6384C28.4133 17.9185 27.8277 17.3329 27.1078 17.3329C26.3879 17.3329 25.8023 17.9185 25.8023 18.6384V33.0754C25.8023 33.9237 25.1147 34.6113 24.2665 34.6113C23.4183 34.6113 22.7306 33.9237 22.7306 33.0754V18.6384C22.7306 16.2248 24.6942 14.2612 27.1078 14.2612C29.5214 14.2612 31.485 16.2248 31.485 18.6384V33.0754C31.4849 33.9237 30.7973 34.6112 29.9491 34.6112Z" fill="#37103A" fill-opacity="0.86"/>
<path d="M41.4162 34.6112C40.568 34.6112 39.8803 33.9235 39.8803 33.0753V14.3761C39.8803 13.6562 39.2947 13.0706 38.5748 13.0706C37.855 13.0706 37.2694 13.6562 37.2694 14.3761V33.0756C37.2694 33.9238 36.5817 34.6114 35.7335 34.6114C34.8853 34.6114 34.1977 33.9238 34.1977 33.0756V14.3761C34.1977 11.9625 36.1613 9.9989 38.5748 9.9989C40.9884 9.9989 42.952 11.9625 42.952 14.3761V33.0756C42.952 33.9237 42.2645 34.6112 41.4162 34.6112Z" fill="#37103A"/>
<path d="M47.0988 34.6112C46.2506 34.6112 45.563 33.9236 45.563 33.0754V12.9553C45.563 10.5417 47.5266 8.57812 49.9401 8.57812C52.3537 8.57812 54.3173 10.5417 54.3173 12.9553V16.8864C54.3173 17.7346 53.6297 18.4222 52.7815 18.4222C51.9333 18.4222 51.2456 17.7346 51.2456 16.8864V12.9553C51.2456 12.2354 50.66 11.6498 49.9401 11.6498C49.2203 11.6498 48.6347 12.2354 48.6347 12.9553V33.0756C48.6347 33.9237 47.9471 34.6112 47.0988 34.6112Z" fill="#37103A" fill-opacity="0.86"/>
<path d="M47.0988 34.6112C46.2506 34.6112 45.563 33.9236 45.563 33.0754V10.1136C45.563 9.39375 44.9774 8.80817 44.2575 8.80817C43.5376 8.80817 42.952 9.39375 42.952 10.1136V33.0755C42.952 33.9237 42.2644 34.6113 41.4162 34.6113C40.568 34.6113 39.8803 33.9237 39.8803 33.0755V10.1136C39.8803 7.70004 41.8439 5.73645 44.2575 5.73645C46.6711 5.73645 48.6347 7.70004 48.6347 10.1136V33.0755C48.6347 33.9237 47.9471 34.6112 47.0988 34.6112Z" fill="#37103A" fill-opacity="0.86"/>
<path d="M51.7594 50.1274C51.5262 50.1274 51.2897 50.0744 51.0676 49.9619C50.3106 49.5791 50.0073 48.6551 50.39 47.8983C51.1638 46.368 52.298 45.0153 53.6699 43.986C55.7102 42.4556 56.9284 40.0192 56.9284 37.4686V25.1464C56.9284 24.4265 56.3428 23.8409 55.6229 23.8409C54.903 23.8409 54.3175 24.4265 54.3175 25.1464V31.7967C54.3175 32.6449 53.6299 33.3326 52.7816 33.3326C51.9334 33.3326 51.2457 32.6449 51.2457 31.7967V25.1464C51.2457 22.7328 53.2093 20.7692 55.6229 20.7692C58.0365 20.7692 60.0001 22.7328 60.0001 25.1464V37.4686C60.0001 40.9808 58.3227 44.3359 55.5131 46.4433C54.5168 47.1906 53.6933 48.173 53.1313 49.2843C52.8607 49.8191 52.3202 50.1274 51.7594 50.1274Z" fill="#37103A" fill-opacity="0.86"/>
<path d="M35.7335 34.6112C34.8853 34.6112 34.1977 33.9235 34.1977 33.0753V18.6384C34.1977 17.9185 33.6121 17.3329 32.8922 17.3329C32.1723 17.3329 31.5867 17.9185 31.5867 18.6384V33.0754C31.5867 33.9237 30.8991 34.6113 30.0509 34.6113C29.2027 34.6113 28.515 33.9237 28.515 33.0754V18.6384C28.515 16.2248 30.4786 14.2612 32.8922 14.2612C35.3058 14.2612 37.2694 16.2248 37.2694 18.6384V33.0754C37.2694 33.9237 36.5818 34.6112 35.7335 34.6112Z" fill="#37103A" fill-opacity="0.86"/>
<path d="M37.5213 22.6698C33.0312 22.6698 31.0165 25.1866 30.2239 26.6648C30.1245 26.8506 29.8541 26.8502 29.7548 26.6645C28.965 25.186 26.9614 22.6697 22.4715 22.6697C17.3569 22.6697 12.8577 26.1612 12.8577 32.5369C12.8577 35.1167 13.3834 37.327 14.8427 39.7936C17.8165 44.8202 27.6129 51.3366 29.6251 52.6207C29.8477 52.7626 30.1294 52.7631 30.3521 52.6216C32.3661 51.3437 42.1642 44.8596 45.1613 39.7936C46.6205 37.327 47.1427 35.1167 47.1427 32.5369C47.1424 26.1613 42.636 22.6698 37.5213 22.6698Z" fill="#FAACDE"/>
<path d="M29.9892 54.2635C29.567 54.2635 29.1554 54.1433 28.7988 53.9156C27.5843 53.1406 16.8371 46.1817 13.5206 40.5758C11.9999 38.005 11.3216 35.5259 11.3216 32.537C11.3216 29.1017 12.4866 26.1833 14.6906 24.097C16.7093 22.1863 19.4727 21.1339 22.4714 21.1339C26.336 21.1339 28.6564 22.7465 29.9992 24.3153C31.3057 22.8188 33.6391 21.1339 37.5213 21.1339C40.5204 21.1339 43.2846 22.1861 45.3052 24.0965C47.512 26.1832 48.6784 29.1018 48.6784 32.537C48.6784 35.53 48.0013 38.0091 46.483 40.5758C43.1422 46.2233 32.3899 53.1477 31.1749 53.9186C30.8195 54.1441 30.4093 54.2635 29.9892 54.2635ZM22.4715 24.2056C18.4507 24.2056 14.3934 26.7818 14.3934 32.537C14.3934 34.9769 14.9231 36.9133 16.1644 39.0117C18.8563 43.562 27.8251 49.6091 29.9919 51.0284C34.2539 48.2756 41.5087 42.9508 43.8391 39.0117C45.0779 36.9177 45.6066 34.9813 45.6066 32.537C45.6066 26.7818 41.5458 24.2056 37.5211 24.2056C34.02 24.2056 32.3563 25.9377 31.5772 27.3907C31.2634 27.9761 30.655 28.3398 29.9894 28.3398C29.3225 28.3398 28.7136 27.975 28.4 27.388C27.6244 25.9364 25.966 24.2056 22.4715 24.2056Z" fill="#37103A"/>
</g>
<defs>
<clipPath id="clip0_778_47">
<rect width="60" height="60" fill="white"/>
</clipPath>
</defs>
</svg>
