<svg xmlns="http://www.w3.org/2000/svg" fill-rule="evenodd" stroke-linejoin="round" stroke-miterlimit="2" clip-rule="evenodd" viewBox="0 0 24 24" id="gmail" >
  <g transform="translate(-40 -40)">
    <rect width="30" height="30" x="40" y="40" fill="none"></rect>
    <path fill="#2c2c2c" d="M254.895,94.024C254.895,93.255 254.59,92.517 254.046,91.973C253.502,91.43 252.764,91.124 251.995,91.124C248.165,91.124 239.835,91.124 236.005,91.124C235.236,91.124 234.498,91.43 233.954,91.973C233.41,92.517 233.105,93.255 233.105,94.024C233.105,97.088 233.105,102.912 233.105,105.976C233.105,106.745 233.41,107.483 233.954,108.027C234.498,108.57 235.236,108.876 236.005,108.876C239.835,108.876 248.165,108.876 251.995,108.876C252.764,108.876 253.502,108.57 254.046,108.027C254.59,107.483 254.895,106.745 254.895,105.976L254.895,94.024ZM253.095,94.024L253.095,105.976C253.095,106.268 252.979,106.548 252.773,106.754C252.567,106.96 252.287,107.076 251.995,107.076C248.165,107.076 239.835,107.076 236.005,107.076C235.713,107.076 235.433,106.96 235.227,106.754C235.021,106.548 234.905,106.268 234.905,105.976C234.905,102.912 234.905,97.088 234.905,94.024C234.905,93.732 235.021,93.452 235.227,93.246C235.433,93.04 235.713,92.924 236.005,92.924C239.835,92.924 248.165,92.924 251.995,92.924C252.287,92.924 252.567,93.04 252.773,93.246C252.979,93.452 253.095,93.732 253.095,94.024ZM237.9,96.365L237.9,105C237.9,105.497 237.497,105.9 237,105.9C236.503,105.9 236.1,105.497 236.1,105L236.1,95C236.1,94.697 236.252,94.415 236.505,94.249C236.757,94.082 237.076,94.054 237.355,94.173L244,97.021L250.645,94.173C250.924,94.054 251.243,94.082 251.495,94.249C251.748,94.415 251.9,94.697 251.9,95L251.9,105C251.9,105.497 251.497,105.9 251,105.9C250.503,105.9 250.1,105.497 250.1,105L250.1,96.365L244.355,98.827C244.128,98.924 243.872,98.924 243.645,98.827L237.9,96.365Z" transform="translate(-192 -48)"></path>
  </g>
</svg>
