<svg width="100" height="100" viewBox="0 0 100 100" fill="none" xmlns="http://www.w3.org/2000/svg">
<path d="M29.1667 35.1223C29.1667 41.5714 36.358 48.365 42.2904 52.8721C45.6204 55.4018 47.285 56.6666 50 56.6666C52.715 56.6666 54.38 55.4018 57.7096 52.8722C63.6421 48.3651 70.8333 41.5715 70.8333 35.1223C70.8333 23.4966 59.3746 19.1561 50 28.1369C40.6253 19.1561 29.1667 23.4966 29.1667 35.1223Z" fill="#DDECDE"/>
<path opacity="0.5" d="M26.371 88.2275H25.2879C21.3595 88.2275 19.3954 88.2275 18.175 87.007C16.9546 85.7866 16.9546 83.8225 16.9546 79.8941V75.2608C16.9546 73.1004 16.9546 72.0204 17.5095 71.0558C18.0644 70.0908 18.9015 69.6041 20.5758 68.6304C31.5986 62.2191 32.375 65.3762 52.7879 67.6091C53.4896 68.0279 59.0342 65.7662 59.5733 66.372C61.8988 68.9841 60.4679 71.77 57.7879 74.1091C54.5535 76.0622 43.2879 75.6091 43.2879 77.1091C44 77.5 58.2504 76.14 58.7071 76.067C62.5046 75.4612 67.0817 75.2045 70 73L77 67.5C80.5 65 82.735 63.5337 85.39 65.5383C87.7804 67.3433 88.5113 70.315 87 72.737C85.2379 75.562 82.755 79.1758 80.3708 81.3837C77.9833 83.595 74.4292 85.5691 71.5275 86.9695C68.3129 88.5212 64.7621 89.415 61.15 90C53.8246 91.1854 46.1904 91.0045 38.9393 89.5108C34.8401 88.6662 30.5829 88.2275 26.371 88.2275Z" fill="#DDECDE"/>
</svg>
