<svg width="118" height="129" viewBox="0 0 118 129" fill="none" xmlns="http://www.w3.org/2000/svg">
<path d="M62.1989 48.5765L61.1756 67.2009C61.1756 67.2009 64.6419 77.924 63.6739 92.8497C62.7428 107.231 59.2489 114.508 58.2901 117.027C57.3314 119.547 54.6395 122.701 58.2901 123.961C61.9408 125.221 68.0989 124.596 70.7908 123.538C73.4826 122.49 74.8193 116.644 75.2158 114.286C76.1837 108.451 76.7184 97.4151 74.7548 86.5308C73.2522 78.1659 70.0625 63.8247 70.0625 63.8247L62.1989 48.5765Z" fill="#99C23B"/>
<path d="M61.5628 45.7547C61.5628 45.7547 65.5084 32.2197 74.5797 21.9501C83.273 12.1139 92.1506 8.88888 99.2675 7.92138C107.113 6.85309 110.312 6.96395 111.657 8.02216C113.003 9.08036 112.524 10.7433 112.552 12.2147C112.727 22.7362 113.086 36.3719 101.766 48.8486C89.68 62.1518 81.0697 64.5403 71.6389 65.5985C62.2173 66.6466 63.2867 61.9502 63.2867 61.9502L61.5628 45.7547Z" fill="#99C23B"/>
<path d="M2.74717 37.3394C2.40608 39.1837 11.3114 60.8315 28.5136 67.6443C47.034 74.9913 64.4944 67.6443 64.4944 67.6443L65.9325 48.1532L61.5536 45.7546C61.5536 45.7546 52.2703 34.5578 41.9545 30.4258C31.2608 26.1426 19.175 25.81 10.9426 30.6173C5.78014 33.6407 2.93155 36.3618 2.74717 37.3394Z" fill="#99C23B"/>
<path d="M79.9081 30.9197C71.3347 42.0258 67.0111 53.2226 66.5594 56.1452C66.1076 59.0679 67.5919 58.947 68.4308 57.7073C69.9427 55.47 75.2066 45.2407 83.0425 35.4952C89.8275 27.0698 100.152 17.9592 101.664 16.0141C102.605 14.8048 101.572 13.283 100.152 13.9683C98.7328 14.6435 88.6751 19.5616 79.9081 30.9197Z" fill="#FFC107" fill-opacity="0.7"/>
<path d="M38.1933 41.3203C25.6558 36.6037 16.4831 37.2387 14.6117 37.924C12.7403 38.6093 12.8325 40.8466 15.0542 41.1389C17.2759 41.4312 26.338 42.4188 37.6955 46.8834C49.8181 51.6605 58.4561 58.8663 59.9772 59.8439C61.4891 60.8215 62.4755 58.8663 61.1388 57.1127C60.1155 55.7925 52.0214 46.5206 38.1933 41.3203Z" fill="#FFC107" fill-opacity="0.7"/>
</svg>
