<svg width="60" height="60" viewBox="0 0 60 60" fill="none" xmlns="http://www.w3.org/2000/svg">
<g clip-path="url(#clip0_778_61)">
<path d="M58.5172 11.7194C57.4854 10.2158 56.0778 9.38782 54.5535 9.38782C53.0293 9.38782 51.6217 10.2158 50.5898 11.7194C49.6337 13.1128 49.1071 14.9478 49.1071 16.8865C49.1071 18.8253 49.6337 20.6603 50.5898 22.0536C51.4014 23.2361 52.4457 23.9985 53.5961 24.2711V49.6548C53.5961 50.1836 54.0246 50.6123 54.5535 50.6123C55.0824 50.6123 55.511 50.1836 55.511 49.6548V24.271C56.6612 23.9983 57.7057 23.2359 58.5172 22.0534C59.4734 20.66 60 18.8251 60 16.8864C60 14.9478 59.4734 13.1127 58.5172 11.7194ZM54.5535 22.4702C52.6393 22.4702 51.0219 19.9132 51.0219 16.8865C51.0219 13.8599 52.6393 11.3027 54.5535 11.3027C56.4678 11.3027 58.0851 13.8597 58.0851 16.8864C58.0851 19.9131 56.4678 22.4702 54.5535 22.4702Z" fill="#37103A"/>
<path d="M24.6734 5.32654C11.0685 5.32654 0 16.395 0 29.9999C0 43.6049 11.0685 54.6733 24.6734 54.6733C38.2783 54.6733 49.3469 43.6049 49.3469 29.9999C49.3469 16.395 38.2785 5.32654 24.6734 5.32654ZM24.6734 52.7584C12.1243 52.7584 1.91489 42.549 1.91489 29.9999C1.91489 17.4509 12.1243 7.24143 24.6734 7.24143C37.2226 7.24143 47.4319 17.4509 47.4319 29.9999C47.4319 42.549 37.2226 52.7584 24.6734 52.7584Z" fill="#37103A"/>
<path d="M35.2246 30C32.0102 35.3815 24.4168 43.9847 24.4168 43.9847C24.4168 43.9847 16.7154 35.3825 13.5 30C10.4011 24.812 15.5902 17.0668 21.4247 22.5786C22.6247 23.7124 24.3623 27.6523 24.3623 27.6523C24.3623 27.6523 26.0998 23.7113 27.2999 22.5786C33.1344 17.0679 38.3224 24.813 35.2246 30Z" fill="#FAACDE"/>
<path d="M24.6734 11.3772C14.4048 11.3772 6.05078 19.7312 6.05078 29.9999C6.05078 40.2686 14.4048 48.6226 24.6734 48.6226C28.9032 48.6226 33.0453 47.1646 36.3366 44.5172C36.7487 44.1858 36.8139 43.5832 36.4825 43.1711C36.1512 42.759 35.5486 42.6936 35.1364 43.0252C32.1413 45.4343 28.5232 46.7077 24.6734 46.7077C15.4607 46.7077 7.96567 39.2127 7.96567 29.9999C7.96567 20.7871 15.4607 13.2921 24.6734 13.2921C33.8861 13.2921 41.3812 20.7871 41.3812 29.9999C41.3812 33.8499 40.1078 37.4679 37.6986 40.4629C37.3671 40.875 37.4324 41.4777 37.8445 41.8091C38.2567 42.1405 38.8594 42.075 39.1907 41.663C41.8381 38.3718 43.2961 34.2297 43.2961 29.9998C43.2961 19.7314 34.9421 11.3772 24.6734 11.3772Z" fill="#37103A"/>
</g>
<defs>
<clipPath id="clip0_778_61">
<rect width="60" height="60" fill="white"/>
</clipPath>
</defs>
</svg>
