<svg width="52" height="52" viewBox="0 0 52 52" fill="none" xmlns="http://www.w3.org/2000/svg">
<g clip-path="url(#clip0_778_67)">
<path d="M19.535 6.41161C19.5788 6.41161 19.6109 6.39344 19.6504 6.38703C19.6771 7.12863 19.6718 7.86917 19.6387 8.57979C19.6258 8.84373 19.9753 8.9773 20.1527 8.7935C21.2223 7.67896 22.292 6.56441 23.3616 5.44987C23.3745 5.43598 23.3681 5.41995 23.3777 5.40606C23.3958 5.37934 23.399 5.35156 23.4097 5.32164C23.4215 5.27996 23.4407 5.24149 23.4332 5.20089C23.43 5.16028 23.4023 5.12822 23.3798 5.09082C23.3627 5.06411 23.352 5.03846 23.3275 5.01709C23.3136 5.00533 23.3157 4.98824 23.2997 4.97755C22.0398 4.20068 20.7789 3.42488 19.5179 2.64801C19.3042 2.51657 18.9825 2.73564 19.0755 2.98782C19.3063 3.61509 19.4346 4.28617 19.5254 4.96686C14.5372 5.00106 10.1741 7.87131 7.18524 11.7108C3.83627 16.0119 2.02286 21.4767 2.00149 26.9169C1.99507 27.8498 3.44195 27.8498 3.44623 26.9169C3.46653 21.8806 5.11431 16.902 8.11492 12.8563C10.8067 9.22949 14.9048 6.44153 19.535 6.41161ZM46.0362 19.3459C46.5406 24.3833 45.441 29.5467 42.8411 33.9002C40.55 37.7332 36.8089 40.9721 32.2353 41.4765C32.1647 41.484 32.1092 41.5128 32.0472 41.5363C31.9446 40.8044 31.8741 40.0702 31.8335 39.366C31.8207 39.1352 31.4958 38.929 31.3206 39.1534C30.3727 40.3726 29.4238 41.5898 28.476 42.8101C28.4556 42.8347 28.4471 42.8625 28.4364 42.8892C28.4311 42.8977 28.4289 42.9042 28.4247 42.9127C28.4193 42.9309 28.4172 42.9458 28.415 42.9619C28.3755 43.0794 28.3894 43.2108 28.5369 43.2824C28.5572 43.292 28.5743 43.3017 28.5946 43.3091C28.5988 43.3113 28.6031 43.3134 28.6074 43.3156C29.9164 43.946 31.2287 44.5786 32.5388 45.2102C32.8144 45.3416 33.088 45.0766 32.9523 44.7966C32.6627 44.2089 32.4704 43.5656 32.3111 42.9074C43.1093 41.6582 48.4512 29.0177 47.4809 19.3448C47.389 18.428 45.9432 18.4183 46.0362 19.3459Z" fill="#37103A"/>
<path d="M26.7078 38.0152C23.4935 43.3967 15.9001 51.9999 15.9001 51.9999C15.9001 51.9999 8.19875 43.3977 4.98334 38.0152C1.88442 32.8272 7.07349 25.082 12.908 30.5938C14.1081 31.7276 15.8456 35.6675 15.8456 35.6675C15.8456 35.6675 17.5831 31.7265 18.7831 30.5938C24.6177 25.0831 29.8057 32.8282 26.7078 38.0152ZM41.0762 1.8956C39.8762 3.02831 38.1386 6.96929 38.1386 6.96929C38.1386 6.96929 36.4011 3.02831 35.2011 1.8956C29.3665 -3.61515 24.1774 4.12896 27.2753 9.31699C30.4907 14.6995 38.192 23.3028 38.192 23.3028C38.192 23.3028 45.7844 14.6995 48.9998 9.31699C52.0998 4.12896 46.9108 -3.61515 41.0762 1.8956Z" fill="#FAACDE"/>
</g>
<defs>
<clipPath id="clip0_778_67">
<rect width="52" height="52" fill="white"/>
</clipPath>
</defs>
</svg>
